SplineFontDB: 3.2
FontName: GaratieChenovaCharacter
FullName: Garatie Chenova Character
FamilyName: Garatie Chenova Character
Weight: Book
Copyright: Typeface (c) (your company). 2020. All Rights Reserved
Version: 1.00;February 1, 2020;FontCreator 12.0.0.2555 64-bit
ItalicAngle: 0
UnderlinePosition: -292
UnderlineWidth: 150
Ascent: 1638
Descent: 410
InvalidEm: 0
sfntRevision: 0x00010000
LayerCount: 2
Layer: 0 1 "+tLe6dAAA" 1
Layer: 1 1 "+xV66dAAA" 0
XUID: [1021 113 -1615642106 3465]
StyleMap: 0x0040
FSType: 0
OS2Version: 5
OS2_WeightWidthSlopeOnly: 1
OS2_UseTypoMetrics: 0
CreationTime: 1580544977
ModificationTime: 1580558980
PfmFamily: 17
TTFWeight: 400
TTFWidth: 5
LineGap: 24
VLineGap: 0
Panose: 2 0 6 0 0 0 0 0 0 0
OS2TypoAscent: 1579
OS2TypoAOffset: 0
OS2TypoDescent: -419
OS2TypoDOffset: 0
OS2TypoLinegap: 205
OS2WinAscent: 1913
OS2WinAOffset: 0
OS2WinDescent: 419
OS2WinDOffset: 0
HheadAscent: 1913
HheadAOffset: 0
HheadDescent: -419
HheadDOffset: 0
OS2SubXSize: 1434
OS2SubYSize: 1331
OS2SubXOff: 0
OS2SubYOff: 307
OS2SupXSize: 1434
OS2SupYSize: 1331
OS2SupXOff: 0
OS2SupYOff: 922
OS2StrikeYSize: 102
OS2StrikeYPos: 530
OS2CapHeight: 1434
OS2XHeight: 958
OS2Vendor: 'HL  '
OS2CodePages: 00000001.00000000
OS2UnicodeRanges: 00000003.00000000.00000000.00000000
DEI: 91125
TtTable: prep
SVTCA[y-axis]
MPPEM
PUSHW_1
 200
GT
IF
PUSHB_2
 1
 1
INSTCTRL
EIF
PUSHB_1
 1
PUSHW_2
 2048
 2048
MUL
WCVTF
PUSHB_2
 0
 7
WS
PUSHB_3
 23
 1
 0
LOOPCALL
PUSHB_2
 0
 7
WS
PUSHB_4
 12
 8
 1
 10
LOOPCALL
PUSHB_2
 0
 7
WS
PUSHB_4
 20
 6
 1
 10
LOOPCALL
PUSHB_2
 0
 8
WS
PUSHW_3
 832
 1
 11
LOOPCALL
PUSHB_2
 0
 9
WS
PUSHW_3
 64
 1
 11
LOOPCALL
PUSHW_2
 3
 0
WCVTP
PUSHB_2
 36
 1
GETINFO
LTEQ
IF
PUSHB_1
 64
GETINFO
IF
PUSHW_2
 3
 100
WCVTP
PUSHB_2
 40
 1
GETINFO
LTEQ
IF
PUSHW_1
 2048
GETINFO
IF
PUSHW_2
 3
 0
WCVTP
EIF
ELSE
PUSHB_2
 39
 1
GETINFO
LTEQ
IF
PUSHW_3
 2176
 1
 1088
GETINFO
MUL
EQ
IF
PUSHW_2
 3
 0
WCVTP
EIF
EIF
EIF
EIF
EIF
PUSHB_4
 14
 6
 1
 14
LOOPCALL
PUSHW_1
 511
SCANCTRL
PUSHB_1
 4

StartChar: exclam
Encoding: 33 33 1
Width: 672
GlyphClass: 2
Flags: W
LayerCount: 2
Fore
SplineSet
374 1422 m 1,0,1
 428 1404 428 1404 470 1317 c 1,2,3
 443 1192 443 1192 355 1192 c 0,4,5
 331 1192 331 1192 269 1269 c 1,6,7
 269 1356 269 1356 374 1422 c 1,0,1
364 799 m 1,8,9
 479 784 479 784 479 694 c 0,10,11
 479 629 479 629 326 570 c 1,12,13
 297 570 297 570 259 704 c 1,14,15
 259 758 259 758 364 799 c 1,8,9
326 196 m 1,16,17
 408 196 408 196 470 100 c 1,18,19
 447 -5 447 -5 374 -5 c 0,20,21
 314 -5 314 -5 259 81 c 1,22,23
 275 147 275 147 326 196 c 1,16,17
EndSplineSet
EndChar

StartChar: quotedbl
Encoding: 34 34 2
Width: 672
GlyphClass: 2
Flags: W
LayerCount: 2
Fore
SplineSet
391 1613 m 1,0,1
 394 1596 394 1596 409 1596 c 1,2,3
 211 1271 211 1271 108 1171 c 1,4,5
 63 1150 63 1150 63 1144 c 1,6,7
 28 1157 28 1157 28 1171 c 2,8,-1
 28 1180 l 1,9,10
 130 1285 130 1285 311 1560 c 1,11,12
 353 1598 353 1598 391 1613 c 1,0,1
603 1587 m 1,13,14
 621 1578 621 1578 630 1578 c 1,15,-1
 630 1560 l 1,16,17
 415 1091 415 1091 311 1091 c 1,18,19
 294 1113 294 1113 294 1126 c 1,20,21
 453 1339 453 1339 577 1578 c 1,22,23
 586 1578 586 1578 603 1587 c 1,13,14
EndSplineSet
EndChar

StartChar: quotesingle
Encoding: 39 39 3
Width: 475
GlyphClass: 2
Flags: W
LayerCount: 2
Fore
SplineSet
410 1575 m 1,0,1
 413 1557 413 1557 428 1557 c 1,2,3
 228 1228 228 1228 124 1127 c 1,4,5
 79 1106 79 1106 79 1100 c 1,6,7
 43 1113 43 1113 43 1127 c 2,8,-1
 43 1136 l 1,9,10
 146 1243 146 1243 330 1521 c 1,11,12
 372 1559 372 1559 410 1575 c 1,0,1
EndSplineSet
EndChar

StartChar: parenleft
Encoding: 40 40 4
Width: 758
GlyphClass: 2
Flags: W
LayerCount: 2
Fore
SplineSet
690 1582 m 1,0,-1
 701 1548 l 1,1,2
 689 1537 689 1537 512 1032 c 1,3,4
 389 756 389 756 345 688 c 1,5,6
 339 667 339 667 339 642 c 1,7,8
 487 116 487 116 604 -184 c 1,9,10
 669 -303 669 -303 669 -333 c 1,11,12
 661 -379 661 -379 652 -379 c 2,13,-1
 642 -379 l 1,14,15
 451 19 451 19 399 286 c 1,16,17
 296 593 296 593 296 676 c 1,18,-1
 490 1100 l 1,19,20
 633 1550 633 1550 690 1582 c 1,0,-1
EndSplineSet
EndChar

StartChar: parenright
Encoding: 41 41 5
Width: 758
GlyphClass: 2
Flags: W
LayerCount: 2
Fore
SplineSet
109 1555 m 1,0,1
 253 1328 253 1328 423 894 c 1,2,-1
 498 693 l 1,3,4
 304 0 304 0 172 -360 c 1,5,6
 153 -371 153 -371 153 -382 c 1,7,8
 128 -371 128 -371 128 -315 c 0,9,10
 128 -292 128 -292 285 167 c 1,11,-1
 429 682 l 1,12,13
 366 929 366 929 84 1521 c 1,14,-1
 84 1544 l 2,15,16
 87 1544 87 1544 109 1555 c 1,0,1
EndSplineSet
EndChar

StartChar: hyphen
Encoding: 45 45 6
AltUni2: 0000ad.ffffffff.0
Width: 1021
GlyphClass: 2
Flags: W
LayerCount: 2
Fore
SplineSet
311 663 m 0,0,1
 422 663 422 663 541 478 c 1,2,3
 617 447 617 447 700 447 c 0,4,5
 805 447 805 447 885 606 c 1,6,7
 917 597 917 597 917 561 c 0,8,9
 917 474 917 474 706 402 c 1,10,-1
 687 402 l 2,11,12
 495 402 495 402 432 542 c 1,13,14
 432 580 432 580 298 619 c 1,15,16
 180 619 180 619 133 504 c 1,17,18
 133 482 133 482 94 440 c 1,19,20
 74 447 74 447 69 466 c 1,21,22
 108 663 108 663 311 663 c 0,0,1
EndSplineSet
EndChar

StartChar: period
Encoding: 46 46 7
Width: 557
GlyphClass: 2
Flags: W
LayerCount: 2
Fore
SplineSet
284 69 m 1,0,1
 456 58 456 58 456 31 c 2,2,-1
 456 26 l 2,3,4
 454 14 454 14 429 4 c 1,5,6
 290 20 290 20 262 20 c 0,7,8
 237 20 237 20 95 15 c 0,9,10
 67 16 67 16 52 36 c 1,11,12
 52 69 52 69 251 69 c 2,13,-1
 284 69 l 1,0,1
EndSplineSet
EndChar

StartChar: slash
Encoding: 47 47 8
Width: 569
GlyphClass: 2
Flags: W
LayerCount: 2
Fore
SplineSet
93 -50 m 1,0,-1
 13 -50 l 1,1,-1
 554 1434 l 1,2,-1
 634 1434 l 1,3,-1
 93 -50 l 1,0,-1
EndSplineSet
EndChar

StartChar: zero
Encoding: 48 48 9
Width: 1014
GlyphClass: 2
Flags: W
LayerCount: 2
Fore
SplineSet
895 1425 m 2,0,1
 916 1425 916 1425 916 1386 c 1,2,3
 824 1147 824 1147 504 622 c 1,4,5
 926 137 926 137 926 104 c 2,6,-1
 926 78 l 2,7,8
 926 68 926 68 895 39 c 1,9,10
 576 436 576 436 453 531 c 1,11,12
 100 0 100 0 41 0 c 2,13,-1
 31 0 l 1,14,-1
 10 39 l 1,15,16
 187 275 187 275 401 596 c 1,17,18
 4 1188 4 1188 0 1386 c 1,19,20
 21 1386 21 1386 21 1399 c 1,21,22
 65 1380 65 1380 247 972 c 1,23,24
 386 753 386 753 442 700 c 1,25,26
 557 844 557 844 875 1425 c 1,27,-1
 895 1425 l 2,0,1
EndSplineSet
EndChar

StartChar: one
Encoding: 49 49 10
Width: 1014
GlyphClass: 2
Flags: W
LayerCount: 2
Fore
SplineSet
551 1430 m 1,0,1
 588 1419 588 1419 588 1377 c 1,2,3
 497 989 497 989 497 593 c 0,4,5
 497 74 497 74 669 74 c 0,6,7
 744 74 744 74 904 318 c 1,8,-1
 922 318 l 1,9,10
 922 307 922 307 931 286 c 1,11,12
 931 172 931 172 714 11 c 1,13,14
 678 0 678 0 651 0 c 0,15,16
 459 0 459 0 425 519 c 1,17,-1
 425 657 l 1,18,-1
 407 657 l 1,19,20
 312 364 312 364 45 21 c 1,21,22
 27 21 27 21 27 11 c 1,23,24
 10 21 10 21 0 21 c 1,25,26
 0 68 0 68 199 360 c 1,27,28
 400 695 400 695 515 1356 c 1,29,30
 515 1401 515 1401 551 1430 c 1,0,1
EndSplineSet
EndChar

StartChar: two
Encoding: 50 50 11
Width: 1014
GlyphClass: 2
Flags: W
LayerCount: 2
Fore
SplineSet
643 1426 m 1,0,1
 687 1410 687 1410 687 1358 c 0,2,3
 687 1307 687 1307 620 842 c 1,4,5
 598 619 598 619 591 370 c 1,6,7
 606 213 606 213 628 213 c 0,8,9
 725 213 725 213 842 752 c 1,10,11
 879 734 879 734 879 685 c 0,12,13
 879 458 879 458 702 168 c 1,14,15
 651 123 651 123 613 123 c 0,16,17
 542 123 542 123 532 438 c 1,18,-1
 532 460 l 1,19,-1
 524 460 l 1,20,21
 422 146 422 146 325 146 c 1,22,23
 251 197 251 197 251 359 c 0,24,25
 251 400 251 400 288 797 c 1,26,-1
 288 808 l 1,27,-1
 281 808 l 1,28,-1
 52 101 l 1,29,30
 40 0 40 0 15 0 c 1,31,32
 0 28 0 28 0 34 c 0,33,34
 0 123 0 123 118 483 c 0,35,36
 288 1004 288 1004 377 1314 c 1,37,38
 391 1314 391 1314 391 1325 c 1,39,40
 421 1314 421 1314 421 1257 c 1,41,42
 310 569 310 569 310 348 c 1,43,44
 321 225 321 225 340 225 c 0,45,46
 411 225 411 225 554 876 c 1,47,48
 596 1308 596 1308 643 1426 c 1,0,1
EndSplineSet
EndChar

StartChar: three
Encoding: 51 51 12
Width: 1014
GlyphClass: 2
Flags: W
LayerCount: 2
Fore
SplineSet
776 1421 m 1,0,1
 792 1410 792 1410 801 1410 c 1,2,-1
 801 1388 l 2,3,4
 801 1373 801 1373 459 1235 c 1,5,6
 225 1093 225 1093 125 1005 c 1,7,8
 67 922 67 922 67 907 c 1,9,10
 227 765 227 765 859 765 c 0,11,12
 894 763 894 763 926 721 c 1,13,14
 926 666 926 666 450 503 c 1,15,16
 138 348 138 348 108 306 c 1,17,18
 95 306 95 306 75 262 c 1,19,-1
 75 251 l 1,20,21
 193 76 193 76 684 76 c 2,22,-1
 759 76 l 1,23,24
 809 70 809 70 809 44 c 2,25,-1
 809 33 l 1,26,27
 801 0 801 0 759 0 c 2,28,-1
 684 0 l 2,29,30
 194 0 194 0 25 186 c 1,31,32
 0 245 0 245 0 284 c 0,33,34
 0 397 0 397 676 678 c 1,35,-1
 676 688 l 1,36,-1
 617 699 l 1,37,-1
 601 699 l 2,38,39
 313 699 313 699 42 820 c 1,40,41
 8 865 8 865 8 929 c 0,42,43
 8 1092 8 1092 551 1344 c 1,44,-1
 776 1421 l 1,0,1
EndSplineSet
EndChar

StartChar: four
Encoding: 52 52 13
Width: 1014
GlyphClass: 2
Flags: W
LayerCount: 2
Fore
SplineSet
340 1426 m 1,0,1
 369 1426 369 1426 378 1291 c 1,2,3
 371 1188 371 1188 371 1033 c 1,4,5
 625 1064 625 1064 648 1064 c 1,6,7
 718 1033 718 1033 718 961 c 0,8,9
 718 911 718 911 592 537 c 1,10,11
 548 339 548 339 548 238 c 0,12,13
 548 121 548 121 667 72 c 1,14,15
 811 72 811 72 850 310 c 0,16,17
 850 322 850 322 869 362 c 1,18,19
 894 351 894 351 894 300 c 2,20,-1
 894 269 l 2,21,22
 894 70 894 70 667 0 c 1,23,24
 497 47 497 47 497 258 c 0,25,26
 497 463 497 463 667 950 c 1,27,-1
 667 961 l 2,28,29
 667 969 667 969 648 992 c 1,30,31
 340 970 340 970 340 930 c 0,32,33
 340 602 340 602 88 165 c 1,34,35
 76 165 76 165 76 155 c 1,36,37
 63 165 63 165 57 165 c 1,38,-1
 57 207 l 1,39,40
 290 624 290 624 290 940 c 1,41,42
 80 899 80 899 19 899 c 1,43,44
 19 888 19 888 13 888 c 1,45,46
 13 909 13 909 0 909 c 1,47,48
 0 966 0 966 315 1023 c 1,49,50
 334 1187 334 1187 334 1322 c 0,51,52
 334 1353 334 1353 321 1405 c 1,53,-1
 340 1426 l 1,0,1
EndSplineSet
EndChar

StartChar: five
Encoding: 53 53 14
Width: 1014
GlyphClass: 2
Flags: W
LayerCount: 2
Fore
SplineSet
460 1433 m 1,0,1
 572 1433 572 1433 639 864 c 1,2,3
 686 640 686 640 711 640 c 0,4,5
 941 626 941 626 941 589 c 2,6,-1
 941 579 l 2,7,8
 941 564 941 564 912 549 c 1,9,10
 890 549 890 549 718 569 c 1,11,12
 718 549 718 549 711 549 c 1,13,14
 754 335 754 335 754 295 c 0,15,16
 754 0 754 0 517 0 c 2,17,-1
 510 0 l 2,18,19
 325 0 325 0 158 295 c 1,20,21
 136 358 136 358 136 386 c 0,22,23
 136 520 136 520 359 620 c 1,24,25
 481 650 481 650 582 650 c 2,26,-1
 625 650 l 1,27,-1
 625 660 l 1,28,29
 546 1118 546 1118 496 1321 c 1,30,31
 477 1351 477 1351 453 1351 c 0,32,33
 401 1351 401 1351 244 986 c 1,34,35
 122 643 122 643 50 183 c 1,36,37
 45 30 45 30 14 30 c 1,38,-1
 0 61 l 1,39,40
 16 486 16 486 201 1026 c 1,41,42
 340 1372 340 1372 460 1433 c 1,0,1
194 376 m 0,43,44
 194 218 194 218 481 71 c 1,45,-1
 532 71 l 1,46,47
 697 101 697 101 697 274 c 2,48,-1
 697 305 l 1,49,50
 661 533 661 533 646 579 c 1,51,-1
 582 579 l 1,52,53
 194 549 194 549 194 376 c 0,43,44
EndSplineSet
EndChar

StartChar: six
Encoding: 54 54 15
Width: 1014
GlyphClass: 2
Flags: W
LayerCount: 2
Fore
SplineSet
670 1429 m 1,0,-1
 684 1400 l 1,1,2
 505 1329 505 1329 331 1179 c 1,3,4
 217 1068 217 1068 191 997 c 1,5,-1
 191 988 l 2,6,7
 191 899 191 899 493 777 c 1,8,9
 802 611 802 611 802 479 c 0,10,11
 802 405 802 405 721 249 c 1,12,13
 964 114 964 114 964 19 c 1,14,15
 949 19 949 19 949 10 c 1,16,17
 721 192 721 192 677 192 c 1,18,19
 515 0 515 0 353 0 c 1,20,21
 0 60 0 60 0 163 c 0,22,23
 0 269 0 269 442 297 c 1,24,-1
 500 297 l 2,25,26
 559 297 559 297 655 288 c 1,27,28
 751 381 751 381 751 489 c 0,29,30
 751 598 751 598 206 853 c 1,31,32
 140 920 140 920 140 968 c 2,33,-1
 140 988 l 2,34,35
 140 1155 140 1155 603 1419 c 1,36,37
 643 1429 643 1429 670 1429 c 1,0,-1
81 153 m 1,38,39
 232 67 232 67 353 67 c 0,40,41
 498 67 498 67 603 211 c 1,42,-1
 603 221 l 1,43,-1
 567 230 l 1,44,-1
 442 230 l 1,45,46
 81 200 81 200 81 153 c 1,38,39
EndSplineSet
EndChar

StartChar: seven
Encoding: 55 55 16
Width: 1110
GlyphClass: 2
Flags: W
LayerCount: 2
Fore
SplineSet
937 1276 m 2,0,-1
 994 1276 l 1,1,2
 1030 1247 1030 1247 1030 1182 c 0,3,4
 1030 824 1030 824 909 424 c 1,5,6
 807 205 807 205 731 205 c 2,7,-1
 710 205 l 2,8,9
 595 205 595 205 532 309 c 1,10,11
 442 143 442 143 325 143 c 2,12,-1
 304 143 l 1,13,14
 53 176 53 176 41 320 c 1,15,16
 48 320 48 320 48 330 c 1,17,18
 14 371 14 371 5 673 c 1,19,20
 32 1042 32 1042 154 1110 c 1,21,-1
 219 1120 l 1,22,23
 334 1120 334 1120 532 476 c 1,24,-1
 539 476 l 1,25,26
 570 534 570 534 774 1078 c 1,27,28
 876 1276 876 1276 937 1276 c 2,0,-1
574 392 m 1,29,-1
 574 372 l 1,30,31
 625 278 625 278 717 278 c 1,32,33
 811 321 811 321 881 528 c 1,34,35
 973 909 973 909 973 1162 c 2,36,-1
 973 1203 l 1,37,-1
 966 1203 l 2,38,39
 858 1203 858 1203 674 631 c 1,40,-1
 574 392 l 1,29,-1
55 663 m 1,41,42
 73 299 73 299 119 299 c 1,43,44
 217 216 217 216 318 216 c 0,45,46
 401 216 401 216 503 382 c 1,47,48
 296 1037 296 1037 204 1037 c 2,49,-1
 197 1037 l 2,50,51
 97 1037 97 1037 55 663 c 1,41,42
EndSplineSet
EndChar

StartChar: eight
Encoding: 56 56 17
Width: 1014
GlyphClass: 2
Flags: W
LayerCount: 2
Fore
SplineSet
652 1432 m 0,0,1
 879 1432 879 1432 879 1294 c 2,2,-1
 879 1284 l 2,3,4
 879 1138 879 1138 632 1037 c 1,5,6
 564 1017 564 1017 514 1017 c 2,7,-1
 504 1017 l 2,8,9
 362 1017 362 1017 257 1126 c 1,10,11
 79 876 79 876 79 632 c 1,12,13
 92 405 92 405 138 405 c 1,14,15
 349 504 349 504 484 504 c 2,16,-1
 602 504 l 1,17,18
 918 468 918 468 918 286 c 2,19,-1
 918 277 l 2,20,21
 918 52 918 52 494 0 c 1,22,23
 274 0 274 0 99 277 c 1,24,-1
 79 277 l 1,25,-1
 20 247 l 1,26,27
 20 267 20 267 0 267 c 1,28,29
 49 351 49 351 49 375 c 1,30,31
 10 563 10 563 10 642 c 0,32,33
 10 903 10 903 237 1234 c 1,34,35
 237 1323 237 1323 267 1323 c 1,36,37
 267 1309 267 1309 296 1294 c 1,38,39
 508 1432 508 1432 652 1432 c 0,0,1
316 1175 m 1,40,41
 356 1067 356 1067 494 1067 c 2,42,-1
 514 1067 l 2,43,44
 693 1067 693 1067 810 1274 c 1,45,-1
 810 1284 l 2,46,47
 810 1351 810 1351 652 1363 c 1,48,49
 316 1293 316 1293 316 1175 c 1,40,41
158 326 m 1,50,-1
 158 316 l 1,51,52
 314 69 314 69 494 69 c 0,53,54
 783 69 783 69 849 277 c 1,55,-1
 849 306 l 2,56,57
 849 374 849 374 642 435 c 1,58,-1
 484 435 l 2,59,60
 330 435 330 435 158 326 c 1,50,-1
EndSplineSet
EndChar

StartChar: nine
Encoding: 57 57 18
Width: 1014
GlyphClass: 2
Flags: W
LayerCount: 2
Fore
SplineSet
289 1427 m 1,0,1
 307 1418 307 1418 317 1418 c 1,2,-1
 317 1399 l 1,3,4
 149 1278 149 1278 149 1175 c 2,5,-1
 149 1119 l 2,6,7
 149 899 149 899 606 802 c 1,8,9
 858 866 858 866 858 1054 c 0,10,11
 858 1085 858 1085 867 1101 c 1,12,-1
 849 1334 l 1,13,14
 867 1334 867 1334 867 1343 c 1,15,16
 923 1343 923 1343 923 1278 c 2,17,-1
 923 1203 l 2,18,19
 923 1159 923 1159 933 1110 c 1,20,21
 933 868 933 868 727 774 c 1,22,-1
 727 755 l 1,23,24
 839 667 839 667 839 560 c 0,25,26
 839 287 839 287 429 37 c 1,27,28
 311 0 311 0 252 0 c 0,29,30
 24 0 24 0 0 261 c 1,31,32
 0 529 0 529 429 718 c 0,33,34
 513 753 513 753 513 765 c 1,35,36
 166 889 166 889 112 1007 c 1,37,38
 84 1096 84 1096 84 1138 c 0,39,40
 84 1261 84 1261 252 1408 c 1,41,42
 289 1408 289 1408 289 1427 c 1,0,1
65 270 m 2,43,-1
 65 242 l 1,44,45
 93 65 93 65 242 65 c 2,46,-1
 270 65 l 2,47,48
 503 65 503 65 746 429 c 1,49,50
 774 516 774 516 774 588 c 0,51,52
 774 649 774 649 644 727 c 1,53,54
 274 616 274 616 140 448 c 1,55,56
 65 328 65 328 65 270 c 2,43,-1
EndSplineSet
EndChar

StartChar: question
Encoding: 63 63 19
Width: 1350
GlyphClass: 2
Flags: W
LayerCount: 2
Fore
SplineSet
1214 828 m 1,0,1
 1237 828 1237 828 1260 744 c 1,2,3
 1234 660 1234 660 1176 660 c 2,4,-1
 1153 660 l 2,5,6
 1100 660 1100 660 1100 706 c 0,7,8
 1100 792 1100 792 1214 828 c 1,0,1
160 821 m 1,9,10
 212 795 212 795 237 759 c 1,11,-1
 237 752 l 2,12,13
 237 676 237 676 122 660 c 1,14,15
 84 660 84 660 84 706 c 2,16,-1
 84 737 l 1,17,18
 120 803 120 803 160 821 c 1,9,10
718 821 m 0,19,20
 794 821 794 821 794 737 c 0,21,22
 794 669 794 669 695 645 c 1,23,24
 646 645 646 645 634 714 c 1,25,26
 669 821 669 821 718 821 c 0,19,20
EndSplineSet
EndChar

StartChar: C
Encoding: 67 67 20
Width: 1204
GlyphClass: 2
Flags: W
LayerCount: 2
Fore
SplineSet
220 952 m 1,0,1
 381 920 381 920 381 772 c 1,2,3
 355 503 355 503 355 451 c 2,4,-1
 355 341 l 1,5,6
 391 150 391 150 440 150 c 2,7,-1
 474 150 l 2,8,9
 596 150 596 150 837 682 c 1,10,11
 910 912 910 912 939 912 c 1,12,13
 967 902 967 902 973 872 c 1,14,15
 896 569 896 569 896 491 c 2,16,-1
 896 371 l 1,17,18
 976 60 976 60 1049 60 c 1,19,20
 1049 53 1049 53 1091 30 c 1,21,22
 1083 11 1083 11 1083 0 c 1,23,-1
 1040 0 l 2,24,25
 933 0 933 0 846 311 c 0,26,27
 837 350 837 350 837 391 c 2,28,-1
 837 501 l 1,29,-1
 829 501 l 1,30,31
 611 98 611 98 491 80 c 1,32,33
 304 107 304 107 304 301 c 1,34,35
 296 301 296 301 296 361 c 2,36,-1
 296 451 l 1,37,38
 321 768 321 768 321 802 c 0,39,40
 321 869 321 869 228 892 c 1,41,-1
 220 892 l 2,42,43
 115 892 115 892 34 611 c 1,44,-1
 25 611 l 2,45,46
 13 611 13 611 0 641 c 1,47,-1
 0 662 l 2,48,49
 0 826 0 826 195 942 c 1,50,51
 204 942 204 942 220 952 c 1,0,1
EndSplineSet
EndChar

StartChar: S
Encoding: 83 83 21
Width: 785
GlyphClass: 2
Flags: W
LayerCount: 2
Fore
SplineSet
474 962 m 2,0,1
 593 962 593 962 593 936 c 1,2,3
 580 934 580 934 580 922 c 1,4,-1
 488 929 l 1,5,6
 142 929 142 929 53 731 c 1,7,-1
 46 685 l 1,8,9
 65 621 65 621 461 481 c 1,10,11
 672 399 672 399 672 224 c 2,12,-1
 672 165 l 1,13,14
 624 7 624 7 474 7 c 1,15,16
 458 0 458 0 369 0 c 0,17,18
 343 0 343 0 231 13 c 1,19,-1
 217 7 l 1,20,21
 45 40 45 40 40 59 c 1,22,-1
 40 66 l 2,23,24
 40 72 40 72 66 86 c 1,25,-1
 79 79 l 1,26,-1
 145 79 l 1,27,28
 327 46 327 46 395 46 c 0,29,30
 559 46 559 46 600 112 c 1,31,32
 626 163 626 163 626 178 c 2,33,-1
 626 224 l 2,34,35
 626 380 626 380 435 435 c 1,36,37
 149 545 149 545 46 613 c 1,38,39
 0 663 0 663 0 698 c 0,40,41
 0 924 0 924 428 962 c 1,42,-1
 474 962 l 2,0,1
EndSplineSet
EndChar

StartChar: U
Encoding: 85 85 22
Width: 616
GlyphClass: 2
Flags: W
LayerCount: 2
Fore
SplineSet
26 1432 m 1,0,1
 82 1420 82 1420 230 1188 c 1,2,-1
 247 1188 l 1,3,4
 358 1373 358 1373 460 1432 c 1,5,6
 470 1432 470 1432 503 1403 c 1,7,8
 503 1388 503 1388 366 1257 c 1,9,10
 292 1106 292 1106 239 1101 c 0,11,12
 197 1101 197 1101 51 1335 c 1,13,14
 41 1335 41 1335 0 1393 c 1,15,-1
 26 1432 l 1,0,1
256 1003 m 1,16,17
 290 994 290 994 290 945 c 2,18,-1
 290 779 l 2,19,20
 290 603 290 603 315 283 c 1,21,22
 287 10 287 10 264 0 c 1,23,24
 230 10 230 10 230 58 c 0,25,26
 230 125 230 125 256 292 c 1,27,28
 230 582 230 582 230 779 c 2,29,-1
 230 867 l 2,30,31
 230 967 230 967 256 1003 c 1,16,17
EndSplineSet
EndChar

StartChar: a
Encoding: 97 97 23
Width: 823
GlyphClass: 2
Flags: W
LayerCount: 2
Fore
SplineSet
411 1432 m 0,0,1
 438 1432 438 1432 715 1084 c 1,2,-1
 715 1064 l 2,3,4
 715 1048 715 1048 679 1033 c 1,5,6
 650 1033 650 1033 402 1350 c 1,7,8
 297 1265 297 1265 45 992 c 1,9,-1
 27 982 l 1,10,11
 9 992 9 992 0 992 c 1,12,-1
 0 1023 l 1,13,14
 332 1432 332 1432 411 1432 c 0,0,1
358 1054 m 1,15,16
 393 1043 393 1043 393 992 c 2,17,-1
 393 818 l 2,18,19
 393 633 393 633 420 297 c 1,20,21
 391 11 391 11 367 0 c 1,22,23
 331 10 331 10 331 61 c 0,24,25
 331 131 331 131 358 307 c 1,26,27
 331 611 331 611 331 818 c 2,28,-1
 331 910 l 2,29,30
 331 1016 331 1016 358 1054 c 1,15,16
EndSplineSet
EndChar

StartChar: b
Encoding: 98 98 24
Width: 1011
GlyphClass: 2
Flags: W
LayerCount: 2
Fore
SplineSet
19 957 m 1,0,1
 77 957 77 957 77 459 c 2,2,-1
 77 431 l 1,3,-1
 86 431 l 1,4,5
 312 794 312 794 727 794 c 0,6,7
 919 794 919 794 919 383 c 0,8,9
 919 135 919 135 737 67 c 1,10,11
 705 48 705 48 565 19 c 0,12,13
 553 19 553 19 517 48 c 1,14,15
 517 76 517 76 746 144 c 1,16,17
 852 210 852 210 852 373 c 0,18,19
 852 727 852 727 727 727 c 0,20,21
 260 727 260 727 115 287 c 1,22,23
 77 198 77 198 57 10 c 1,24,25
 38 10 38 10 38 0 c 1,26,-1
 0 29 l 1,27,28
 10 220 10 220 10 316 c 0,29,30
 10 519 10 519 0 938 c 1,31,32
 19 938 19 938 19 957 c 1,0,1
EndSplineSet
EndChar

StartChar: d
Encoding: 100 100 25
Width: 903
GlyphClass: 2
Flags: W
LayerCount: 2
Fore
SplineSet
539 1098 m 1,0,1
 595 1090 595 1090 595 1073 c 2,2,-1
 595 1049 l 1,3,4
 411 1049 411 1049 177 834 c 1,5,6
 65 688 65 688 65 586 c 0,7,8
 65 486 65 486 362 462 c 1,9,-1
 418 462 l 1,10,11
 576 479 576 479 595 479 c 2,12,-1
 650 479 l 2,13,14
 799 479 799 479 799 429 c 0,15,16
 799 284 799 284 622 74 c 1,17,18
 539 0 539 0 511 0 c 1,19,20
 493 8 493 8 483 8 c 1,21,-1
 483 33 l 1,22,23
 725 253 725 253 725 405 c 2,24,-1
 725 413 l 1,25,-1
 678 421 l 1,26,-1
 595 421 l 1,27,28
 437 405 437 405 418 405 c 2,29,-1
 362 405 l 1,30,31
 0 430 0 430 0 586 c 2,32,-1
 0 594 l 2,33,34
 0 835 0 835 353 1040 c 1,35,36
 505 1098 505 1098 539 1098 c 1,0,1
EndSplineSet
EndChar

StartChar: e
Encoding: 101 101 26
Width: 757
GlyphClass: 2
Flags: W
LayerCount: 2
Fore
SplineSet
38 1427 m 1,0,1
 113 1405 113 1405 197 1405 c 2,2,-1
 592 1405 l 2,3,4
 626 1405 626 1405 649 1373 c 1,5,6
 639 1329 639 1329 592 1329 c 2,7,-1
 197 1329 l 1,8,9
 0 1335 0 1335 0 1383 c 1,10,11
 7 1416 7 1416 38 1427 c 1,0,1
338 1122 m 1,12,13
 376 1111 376 1111 376 1057 c 2,14,-1
 376 871 l 2,15,16
 376 674 376 674 404 316 c 1,17,18
 373 11 373 11 348 0 c 1,19,20
 310 11 310 11 310 65 c 0,21,22
 310 139 310 139 338 327 c 1,23,24
 310 651 310 651 310 871 c 2,25,-1
 310 969 l 2,26,27
 310 1082 310 1082 338 1122 c 1,12,13
EndSplineSet
EndChar

StartChar: f
Encoding: 102 102 27
Width: 997
GlyphClass: 2
Flags: W
LayerCount: 2
Fore
SplineSet
374 1210 m 1,0,-1
 405 1186 l 1,1,2
 390 1080 390 1080 390 1011 c 1,3,-1
 397 1011 l 1,4,5
 701 1019 701 1019 772 1019 c 0,6,7
 829 1019 829 1019 856 987 c 1,8,9
 856 947 856 947 764 947 c 0,10,11
 421 939 421 939 374 939 c 1,12,13
 329 665 329 665 290 541 c 1,14,-1
 290 525 l 1,15,-1
 298 525 l 1,16,17
 595 668 595 668 787 668 c 0,18,19
 894 668 894 668 894 422 c 0,20,21
 894 154 894 154 657 0 c 1,22,23
 657 16 657 16 642 16 c 1,24,25
 642 29 642 29 772 207 c 1,26,27
 825 323 825 323 825 438 c 0,28,29
 823 598 823 598 772 613 c 1,30,31
 559 613 559 613 298 446 c 1,32,33
 252 446 252 446 130 119 c 1,34,35
 75 24 75 24 53 24 c 0,36,37
 15 24 15 24 8 56 c 1,38,39
 8 159 8 159 199 462 c 1,40,41
 306 776 306 776 306 939 c 1,42,43
 222 939 222 939 53 931 c 1,44,45
 0 939 0 939 0 955 c 2,46,-1
 0 963 l 2,47,48
 0 995 0 995 321 995 c 1,49,50
 348 1152 348 1152 374 1210 c 1,0,-1
EndSplineSet
EndChar

StartChar: g
Encoding: 103 103 28
Width: 955
GlyphClass: 2
Flags: W
LayerCount: 2
Fore
SplineSet
646 952 m 1,0,1
 903 892 903 892 903 579 c 2,2,-1
 903 516 l 2,3,4
 903 329 903 329 653 5 c 1,5,6
 624 21 624 21 624 37 c 2,7,-1
 624 58 l 1,8,9
 852 370 852 370 852 516 c 2,10,-1
 852 601 l 2,11,12
 852 822 852 822 646 877 c 1,13,-1
 631 877 l 2,14,15
 487 877 487 877 338 739 c 0,16,17
 292 696 292 696 213 675 c 1,18,19
 7 698 7 698 7 856 c 1,20,21
 0 876 0 876 0 888 c 1,22,23
 15 888 15 888 15 909 c 1,24,25
 27 909 27 909 73 781 c 1,26,27
 137 739 137 739 169 739 c 2,28,-1
 220 739 l 1,29,-1
 477 920 l 1,30,31
 551 952 551 952 646 952 c 1,0,1
EndSplineSet
EndChar

StartChar: h
Encoding: 104 104 29
Width: 992
GlyphClass: 2
Flags: W
LayerCount: 2
Fore
SplineSet
440 952 m 1,0,-1
 534 930 l 1,1,-1
 584 938 l 1,2,3
 710 938 710 938 887 721 c 1,4,5
 933 654 933 654 952 483 c 1,6,7
 911 151 911 151 865 151 c 1,8,9
 760 0 760 0 490 0 c 1,10,11
 0 64 0 64 0 454 c 0,12,13
 0 624 0 624 151 786 c 1,14,15
 355 952 355 952 440 952 c 1,0,-1
50 440 m 0,16,17
 50 177 50 177 346 79 c 1,18,19
 391 58 391 58 505 50 c 1,20,21
 783 50 783 50 865 252 c 1,22,23
 887 345 887 345 894 490 c 1,24,25
 894 799 894 799 548 894 c 1,26,-1
 469 894 l 1,27,28
 469 916 469 916 440 916 c 1,29,30
 50 737 50 737 50 440 c 0,16,17
EndSplineSet
EndChar

StartChar: i
Encoding: 105 105 30
Width: 514
GlyphClass: 2
Flags: W
LayerCount: 2
Fore
SplineSet
240 1418 m 1,0,1
 295 1404 295 1404 295 1335 c 2,2,-1
 295 1099 l 2,3,4
 295 848 295 848 337 393 c 1,5,6
 291 5 291 5 253 -9 c 1,7,8
 198 5 198 5 198 74 c 0,9,10
 198 168 198 168 240 407 c 1,11,12
 198 819 198 819 198 1099 c 2,13,-1
 198 1224 l 2,14,15
 198 1367 198 1367 240 1418 c 1,0,1
EndSplineSet
EndChar

StartChar: j
Encoding: 106 106 31
Width: 1209
GlyphClass: 2
Flags: W
LayerCount: 2
Fore
SplineSet
222 951 m 1,0,1
 384 919 384 919 384 772 c 1,2,3
 358 507 358 507 358 455 c 2,4,-1
 358 346 l 1,5,6
 394 158 394 158 444 158 c 2,7,-1
 478 158 l 2,8,9
 601 158 601 158 844 683 c 1,10,11
 917 911 917 911 947 911 c 1,12,13
 975 901 975 901 981 871 c 1,14,15
 904 572 904 572 904 495 c 2,16,-1
 904 376 l 2,17,18
 904 303 904 303 930 297 c 1,19,-1
 938 297 l 1,20,21
 1101 564 1101 564 1117 564 c 1,22,-1
 1117 574 l 1,23,24
 1134 564 1134 564 1143 564 c 1,25,-1
 1143 545 l 2,26,27
 1143 492 1143 492 964 208 c 1,28,-1
 964 188 l 2,29,30
 964 136 964 136 1092 39 c 1,31,-1
 1100 39 l 1,32,33
 1092 20 1092 20 1092 10 c 1,34,-1
 1049 10 l 2,35,36
 993 10 993 10 930 119 c 1,37,-1
 904 119 l 1,38,39
 735 -40 735 -40 699 -40 c 1,40,41
 683 -30 683 -30 674 -30 c 1,42,-1
 674 0 l 1,43,44
 857 159 857 159 879 218 c 1,45,46
 844 333 844 333 844 396 c 2,47,-1
 844 505 l 1,48,-1
 836 505 l 1,49,50
 616 106 616 106 495 89 c 1,51,52
 307 115 307 115 307 307 c 1,53,54
 299 307 299 307 299 366 c 2,55,-1
 299 455 l 1,56,57
 324 769 324 769 324 802 c 0,58,59
 324 868 324 868 230 891 c 1,60,-1
 222 891 l 2,61,62
 116 891 116 891 34 614 c 1,63,-1
 26 614 l 2,64,65
 13 614 13 614 0 644 c 1,66,-1
 0 663 l 2,67,68
 0 826 0 826 196 941 c 1,69,70
 205 941 205 941 222 951 c 1,0,1
EndSplineSet
EndChar

StartChar: k
Encoding: 107 107 32
Width: 1115
GlyphClass: 2
Flags: W
LayerCount: 2
Fore
SplineSet
417 1258 m 1,0,-1
 425 1237 l 1,1,-1
 425 1194 l 2,2,3
 425 1071 425 1071 358 821 c 1,4,-1
 367 821 l 1,5,6
 552 949 552 949 725 949 c 2,7,-1
 733 949 l 1,8,9
 1025 890 1025 890 1025 576 c 2,10,-1
 1025 512 l 2,11,12
 1025 325 1025 325 742 0 c 1,13,14
 708 16 708 16 708 32 c 2,15,-1
 708 53 l 1,16,17
 967 366 967 366 967 512 c 2,18,-1
 967 597 l 2,19,20
 967 819 967 819 733 874 c 1,21,-1
 717 874 l 2,22,23
 553 874 553 874 367 725 c 1,24,25
 315 725 315 725 200 362 c 1,26,27
 154 288 154 288 125 288 c 1,28,-1
 108 320 l 1,29,30
 233 618 233 618 233 661 c 2,31,-1
 233 672 l 1,32,33
 0 694 0 694 0 885 c 1,34,35
 17 885 17 885 17 906 c 1,36,37
 31 906 31 906 83 778 c 1,38,39
 156 736 156 736 192 736 c 2,40,-1
 267 736 l 1,41,42
 325 909 325 909 392 1247 c 1,43,44
 401 1247 401 1247 417 1258 c 1,0,-1
EndSplineSet
EndChar

StartChar: l
Encoding: 108 108 33
Width: 1105
GlyphClass: 2
Flags: W
LayerCount: 2
Fore
SplineSet
429 1239 m 1,0,1
 503 1211 503 1211 503 1132 c 2,2,-1
 503 1079 l 2,3,4
 503 801 503 801 244 235 c 1,5,6
 280 129 280 129 296 128 c 2,7,-1
 310 128 l 1,8,9
 505 481 505 481 621 481 c 2,10,-1
 636 481 l 2,11,12
 775 481 775 481 828 182 c 1,13,14
 866 128 866 128 894 128 c 0,15,16
 925 128 925 128 998 288 c 1,17,-1
 1013 288 l 1,18,19
 1013 277 1013 277 1020 256 c 1,20,21
 993 53 993 53 880 53 c 0,22,23
 789 53 789 53 739 320 c 1,24,25
 693 406 693 406 628 406 c 0,26,27
 527 406 527 406 340 64 c 1,28,29
 311 53 311 53 288 53 c 0,30,31
 260 53 260 53 200 171 c 1,32,-1
 185 171 l 1,33,34
 96 42 96 42 22 0 c 1,35,36
 8 11 8 11 0 11 c 1,37,-1
 0 32 l 1,38,39
 90 109 90 109 177 278 c 1,40,41
 177 301 177 301 170 395 c 1,42,43
 170 937 170 937 407 1228 c 1,44,45
 414 1228 414 1228 429 1239 c 1,0,1
222 374 m 1,46,-1
 229 374 l 1,47,48
 384 624 384 624 451 1047 c 1,49,-1
 451 1132 l 2,50,51
 451 1154 451 1154 429 1154 c 1,52,53
 222 895 222 895 222 374 c 1,46,-1
EndSplineSet
EndChar

StartChar: m
Encoding: 109 109 34
Width: 1350
GlyphClass: 2
Flags: W
LayerCount: 2
Fore
SplineSet
235 957 m 1,0,1
 289 957 289 957 289 474 c 2,2,-1
 289 446 l 1,3,-1
 298 446 l 1,4,5
 512 799 512 799 904 799 c 0,6,7
 1084 799 1084 799 1084 400 c 0,8,9
 1084 212 1084 212 967 111 c 1,10,-1
 967 102 l 1,11,12
 1274 68 1274 68 1274 37 c 2,13,-1
 1274 28 l 2,14,15
 1274 7 1274 7 1229 0 c 1,16,17
 973 37 973 37 895 37 c 2,18,-1
 660 37 l 2,19,20
 346 37 346 37 99 0 c 1,21,-1
 54 0 l 2,22,23
 21 0 21 0 0 28 c 1,24,25
 0 74 0 74 199 74 c 1,26,27
 199 84 199 84 217 84 c 1,28,29
 226 223 226 223 226 288 c 2,30,-1
 226 334 l 2,31,32
 226 531 226 531 217 938 c 1,33,34
 235 938 235 938 235 957 c 1,0,1
280 93 m 1,35,36
 521 102 521 102 660 102 c 2,37,-1
 678 102 l 1,38,39
 963 133 963 133 1003 269 c 1,40,-1
 1021 390 l 1,41,42
 1021 734 1021 734 904 734 c 0,43,44
 457 734 457 734 316 288 c 0,45,46
 280 162 280 162 280 93 c 1,35,36
EndSplineSet
EndChar

StartChar: n
Encoding: 110 110 35
Width: 1100
GlyphClass: 2
Flags: W
LayerCount: 2
Fore
SplineSet
271 956 m 1,0,1
 273 939 273 939 286 939 c 1,2,3
 54 667 54 667 54 465 c 2,4,-1
 54 411 l 2,5,6
 54 169 54 169 294 63 c 1,7,-1
 325 63 l 2,8,9
 349 63 349 63 588 277 c 1,10,11
 706 349 706 349 758 349 c 0,12,13
 882 349 882 349 1006 45 c 1,14,-1
 1006 27 l 2,15,16
 1006 20 1006 20 983 0 c 1,17,18
 953 4 953 4 867 206 c 1,19,20
 793 282 793 282 751 286 c 1,21,22
 642 268 642 268 371 9 c 1,23,-1
 325 0 l 1,24,-1
 302 0 l 2,25,26
 151 0 151 0 31 259 c 1,27,28
 0 365 0 365 0 429 c 0,29,30
 0 696 0 696 255 956 c 1,31,-1
 271 956 l 1,0,1
EndSplineSet
EndChar

StartChar: o
Encoding: 111 111 36
Width: 489
GlyphClass: 2
Flags: W
LayerCount: 2
Fore
SplineSet
187 1427 m 1,0,1
 392 1394 392 1394 392 1315 c 2,2,-1
 392 1268 l 2,3,4
 392 1134 392 1134 168 1082 c 1,5,-1
 159 1082 l 2,6,7
 21 1082 21 1082 0 1250 c 1,8,9
 0 1427 0 1427 187 1427 c 1,0,1
65 1259 m 1,10,-1
 65 1231 l 1,11,12
 81 1138 81 1138 159 1138 c 0,13,14
 238 1138 238 1138 326 1250 c 1,15,-1
 326 1306 l 2,16,17
 326 1331 326 1331 168 1362 c 1,18,-1
 103 1362 l 2,19,20
 79 1362 79 1362 65 1259 c 1,10,-1
159 961 m 1,21,22
 196 951 196 951 196 905 c 2,23,-1
 196 746 l 2,24,25
 196 577 196 577 224 270 c 1,26,27
 193 10 193 10 168 0 c 1,28,29
 131 9 131 9 131 56 c 0,30,31
 131 119 131 119 159 280 c 1,32,33
 131 557 131 557 131 746 c 2,34,-1
 131 830 l 2,35,36
 131 926 131 926 159 961 c 1,21,22
EndSplineSet
EndChar

StartChar: p
Encoding: 112 112 37
Width: 1100
GlyphClass: 2
Flags: W
LayerCount: 2
Fore
SplineSet
18 960 m 1,0,1
 72 960 72 960 72 494 c 2,2,-1
 72 467 l 1,3,-1
 81 467 l 1,4,5
 293 808 293 808 682 808 c 0,6,7
 862 808 862 808 862 422 c 1,8,-1
 844 278 l 1,9,-1
 1068 36 l 1,10,11
 1068 22 1068 22 1032 0 c 1,12,13
 1018 0 1018 0 808 197 c 1,14,15
 639 81 639 81 530 81 c 0,16,17
 519 81 519 81 485 108 c 1,18,19
 485 137 485 137 682 188 c 1,20,21
 745 230 745 230 745 242 c 0,22,23
 745 259 745 259 503 431 c 1,24,-1
 503 458 l 1,25,-1
 547 467 l 1,26,-1
 763 323 l 1,27,-1
 790 323 l 1,28,-1
 790 332 l 2,29,30
 790 379 790 379 799 413 c 1,31,32
 799 745 799 745 682 745 c 0,33,34
 244 745 244 745 108 332 c 1,35,36
 72 248 72 248 54 72 c 1,37,38
 36 72 36 72 36 63 c 1,39,-1
 0 90 l 1,40,41
 9 269 9 269 9 359 c 0,42,43
 9 549 9 549 0 942 c 1,44,45
 18 942 18 942 18 960 c 1,0,1
EndSplineSet
EndChar

StartChar: r
Encoding: 114 114 38
Width: 1011
GlyphClass: 2
Flags: W
LayerCount: 2
Fore
SplineSet
321 1158 m 1,0,1
 342 1150 342 1150 342 1141 c 2,2,-1
 335 1083 l 1,3,-1
 342 1083 l 1,4,5
 279 584 279 584 209 411 c 1,6,7
 181 374 181 374 181 336 c 2,8,-1
 181 327 l 1,9,-1
 188 327 l 1,10,11
 263 403 263 403 397 403 c 0,12,13
 512 403 512 403 599 109 c 1,14,15
 633 59 633 59 641 59 c 2,16,-1
 662 59 l 2,17,18
 843 59 843 59 906 235 c 1,19,20
 920 235 920 235 920 243 c 1,21,22
 934 235 934 235 941 235 c 1,23,-1
 941 227 l 2,24,25
 941 61 941 61 704 0 c 1,26,27
 569 0 569 0 530 143 c 0,28,29
 479 344 479 344 383 344 c 0,30,31
 213 344 213 344 77 92 c 1,32,-1
 28 25 l 1,33,34
 5 34 5 34 0 59 c 1,35,36
 265 607 265 607 286 1049 c 1,37,38
 304 1158 304 1158 321 1158 c 1,0,1
EndSplineSet
EndChar

StartChar: s
Encoding: 115 115 39
Width: 799
GlyphClass: 2
Flags: W
LayerCount: 2
Fore
SplineSet
292 952 m 0,0,1
 421 952 421 952 550 876 c 1,2,3
 696 768 696 768 696 632 c 2,4,-1
 696 625 l 2,5,6
 696 554 696 554 600 445 c 1,7,8
 668 363 668 363 668 313 c 1,9,10
 638 186 638 186 393 63 c 1,11,12
 226 0 226 0 62 0 c 2,13,-1
 50 0 l 2,14,15
 8 0 8 0 0 28 c 1,16,17
 21 49 21 49 50 49 c 2,18,-1
 62 49 l 2,19,20
 415 49 415 49 617 292 c 1,21,-1
 623 327 l 1,22,-1
 623 334 l 1,23,24
 577 417 577 417 550 417 c 1,25,26
 465 368 465 368 398 368 c 2,27,-1
 353 368 l 1,28,29
 90 425 90 425 90 500 c 0,30,31
 90 563 90 563 230 563 c 2,32,-1
 303 563 l 2,33,34
 399 563 399 563 555 479 c 1,35,-1
 561 479 l 1,36,37
 656 555 656 555 656 639 c 0,38,39
 656 787 656 787 426 883 c 1,40,41
 349 903 349 903 281 903 c 0,42,43
 143 903 143 903 50 869 c 1,44,45
 50 883 50 883 39 883 c 1,46,47
 39 952 39 952 292 952 c 0,0,1
146 493 m 1,48,49
 283 417 283 417 353 417 c 2,50,-1
 398 417 l 1,51,52
 494 428 494 428 494 452 c 1,53,54
 401 514 401 514 303 514 c 2,55,-1
 208 514 l 2,56,57
 146 514 146 514 146 493 c 1,48,49
EndSplineSet
EndChar

StartChar: t
Encoding: 116 116 40
Width: 903
GlyphClass: 2
Flags: W
LayerCount: 2
Fore
SplineSet
139 1192 m 1,0,1
 177 1187 177 1187 323 1002 c 1,2,-1
 342 1002 l 1,3,4
 512 1057 512 1057 536 1057 c 0,5,6
 591 1049 591 1049 591 1033 c 2,7,-1
 591 1010 l 1,8,9
 388 972 388 972 388 938 c 1,10,11
 392 925 392 925 628 731 c 1,12,13
 622 707 622 707 591 700 c 0,14,15
 578 700 578 700 323 906 c 1,16,17
 206 906 206 906 74 620 c 1,18,-1
 65 564 l 1,19,20
 65 468 65 468 360 445 c 1,21,-1
 416 445 l 1,22,23
 573 461 573 461 591 461 c 2,24,-1
 647 461 l 2,25,26
 795 461 795 461 795 413 c 0,27,28
 795 274 795 274 619 72 c 1,29,30
 536 0 536 0 508 0 c 1,31,32
 490 8 490 8 480 8 c 1,33,-1
 480 32 l 1,34,35
 721 243 721 243 721 389 c 2,36,-1
 721 397 l 1,37,-1
 674 405 l 1,38,-1
 591 405 l 1,39,40
 435 389 435 389 416 389 c 2,41,-1
 360 389 l 1,42,43
 0 414 0 414 0 564 c 2,44,-1
 0 572 l 2,45,46
 0 757 0 757 268 962 c 1,47,-1
 268 978 l 1,48,49
 120 1130 120 1130 120 1176 c 2,50,-1
 120 1184 l 1,51,52
 139 1184 139 1184 139 1192 c 1,0,1
EndSplineSet
EndChar

StartChar: u
Encoding: 117 117 41
Width: 480
GlyphClass: 2
Flags: W
LayerCount: 2
Fore
SplineSet
365 1432 m 1,0,1
 383 1423 383 1423 393 1423 c 1,2,-1
 393 1404 l 1,3,4
 158 1288 158 1288 103 1235 c 1,5,6
 186 1159 186 1159 384 1104 c 1,7,-1
 393 1086 l 1,8,-1
 393 1076 l 1,9,-1
 365 1048 l 1,10,11
 114 1101 114 1101 9 1226 c 1,12,-1
 0 1245 l 1,13,14
 42 1312 42 1312 300 1423 c 1,15,-1
 365 1432 l 1,0,1
225 964 m 1,16,17
 262 955 262 955 262 908 c 2,18,-1
 262 749 l 2,19,20
 262 579 262 579 290 271 c 1,21,22
 259 10 259 10 234 0 c 1,23,24
 197 9 197 9 197 56 c 0,25,26
 197 120 197 120 225 281 c 1,27,28
 197 559 197 559 197 749 c 2,29,-1
 197 833 l 2,30,31
 197 930 197 930 225 964 c 1,16,17
EndSplineSet
EndChar

StartChar: v
Encoding: 118 118 42
Width: 1063
GlyphClass: 2
Flags: W
LayerCount: 2
Fore
SplineSet
373 1164 m 1,0,-1
 403 1141 l 1,1,2
 388 1040 388 1040 388 974 c 1,3,-1
 396 974 l 1,4,5
 698 981 698 981 768 981 c 0,6,7
 825 981 825 981 852 951 c 1,8,9
 852 913 852 913 761 913 c 0,10,11
 419 905 419 905 373 905 c 1,12,13
 327 643 327 643 289 525 c 1,14,-1
 289 510 l 1,15,-1
 297 510 l 1,16,17
 593 647 593 647 784 647 c 0,18,19
 890 647 890 647 890 411 c 0,20,21
 890 318 890 318 837 183 c 1,22,23
 893 115 893 115 1042 30 c 1,24,25
 1039 10 1039 10 1004 0 c 1,26,27
 928 23 928 23 806 122 c 1,28,-1
 791 122 l 1,29,30
 705 23 705 23 654 8 c 1,31,32
 654 23 654 23 639 23 c 1,33,34
 639 35 639 35 746 175 c 1,35,36
 660 291 660 291 616 434 c 1,37,-1
 639 464 l 1,38,39
 665 464 665 464 738 281 c 1,40,-1
 768 251 l 1,41,-1
 791 251 l 1,42,43
 822 344 822 344 822 426 c 0,44,45
 819 579 819 579 768 593 c 1,46,47
 557 593 557 593 297 434 c 1,48,49
 251 434 251 434 129 122 c 1,50,51
 75 30 75 30 53 30 c 0,52,53
 15 30 15 30 8 61 c 1,54,55
 8 160 8 160 198 449 c 1,56,57
 304 749 304 749 304 905 c 1,58,59
 221 905 221 905 53 898 c 1,60,61
 0 905 0 905 0 921 c 2,62,-1
 0 928 l 2,63,64
 0 959 0 959 320 959 c 1,65,66
 347 1109 347 1109 373 1164 c 1,0,-1
EndSplineSet
EndChar

StartChar: w
Encoding: 119 119 43
Width: 1298
GlyphClass: 2
Flags: W
LayerCount: 2
Fore
SplineSet
397 957 m 0,0,1
 453 957 453 957 537 521 c 1,2,3
 613 255 613 255 630 233 c 1,4,-1
 638 233 l 1,5,6
 695 957 695 957 933 957 c 0,7,8
 1020 957 1020 957 1120 560 c 1,9,10
 1151 263 1151 263 1190 78 c 1,11,-1
 1182 78 l 1,12,13
 1167 70 1167 70 1159 70 c 0,14,15
 1104 74 1104 74 1058 576 c 1,16,17
 1004 810 1004 810 926 894 c 1,18,-1
 902 894 l 2,19,20
 839 894 839 894 762 661 c 1,21,22
 718 451 718 451 677 93 c 1,23,24
 645 54 645 54 630 54 c 0,25,26
 595 54 595 54 521 389 c 1,27,28
 490 479 490 479 389 879 c 1,29,-1
 381 879 l 1,30,31
 249 772 249 772 54 16 c 1,32,33
 31 8 31 8 31 0 c 1,34,35
 8 6 8 6 0 31 c 1,36,37
 244 957 244 957 397 957 c 0,0,1
EndSplineSet
EndChar

StartChar: y
Encoding: 121 121 44
Width: 729
GlyphClass: 2
Flags: W
LayerCount: 2
Fore
SplineSet
392 952 m 1,0,1
 430 944 430 944 430 914 c 0,2,3
 430 896 430 896 276 660 c 1,4,5
 184 448 184 448 184 215 c 0,6,7
 184 74 184 74 407 54 c 1,8,9
 599 84 599 84 599 322 c 0,10,11
 599 358 599 358 614 376 c 1,12,13
 639 376 639 376 653 315 c 1,14,15
 653 68 653 68 476 15 c 1,16,17
 476 0 476 0 399 0 c 1,18,19
 123 34 123 34 123 230 c 0,20,21
 123 490 123 490 246 737 c 1,22,23
 330 846 330 846 330 875 c 1,24,-1
 322 875 l 1,25,-1
 38 821 l 2,26,27
 29 821 29 821 0 845 c 1,28,29
 0 883 0 883 292 921 c 1,30,31
 292 927 292 927 392 952 c 1,0,1
EndSplineSet
EndChar

StartChar: z
Encoding: 122 122 45
Width: 795
GlyphClass: 2
Flags: W
LayerCount: 2
Fore
SplineSet
356 1122 m 1,0,-1
 368 1122 l 2,1,2
 379 1120 379 1120 379 1108 c 0,3,4
 362 1001 362 1001 333 943 c 1,5,6
 539 943 539 943 683 764 c 1,7,8
 729 685 729 685 729 613 c 0,9,10
 729 547 729 547 624 441 c 1,11,-1
 624 434 l 1,12,13
 659 434 659 434 694 324 c 1,14,-1
 694 310 l 2,15,16
 694 197 694 197 397 55 c 1,17,18
 244 0 244 0 76 0 c 2,19,-1
 35 0 l 2,20,21
 5 0 5 0 0 21 c 1,22,-1
 0 28 l 1,23,24
 6 48 6 48 35 48 c 2,25,-1
 53 48 l 2,26,27
 421 48 421 48 630 282 c 1,28,29
 648 309 648 309 648 324 c 0,30,31
 640 356 640 356 578 413 c 1,32,33
 493 365 493 365 426 365 c 2,34,-1
 356 365 l 1,35,36
 93 418 93 418 93 496 c 2,37,-1
 93 509 l 2,38,39
 93 558 93 558 228 558 c 2,40,-1
 327 558 l 1,41,42
 443 554 443 554 578 475 c 1,43,44
 683 551 683 551 683 640 c 1,45,46
 652 756 652 756 566 812 c 0,47,48
 428 895 428 895 298 895 c 1,49,50
 125 661 125 661 41 661 c 1,51,-1
 35 675 l 1,52,-1
 35 688 l 2,53,54
 37 702 37 702 117 757 c 1,55,56
 222 873 222 873 222 881 c 2,57,-1
 222 888 l 1,58,-1
 216 888 l 1,59,60
 70 877 70 877 70 860 c 1,61,-1
 53 860 l 2,62,63
 41 860 41 860 41 874 c 2,64,-1
 41 888 l 2,65,66
 41 932 41 932 274 943 c 1,67,-1
 356 1122 l 1,0,-1
152 502 m 1,68,-1
 152 489 l 1,69,70
 311 413 311 413 379 413 c 2,71,-1
 403 413 l 2,72,73
 440 413 440 413 519 441 c 1,74,-1
 519 447 l 1,75,76
 391 509 391 509 303 509 c 2,77,-1
 251 509 l 2,78,79
 220 509 220 509 152 502 c 1,68,-1
EndSplineSet
EndChar

